 <svg version="1.0" xmlns="http://www.w3.org/2000/svg"  width="300.000000pt" height="300.000000pt" viewBox="0 0 300.000000 300.000000"  preserveAspectRatio="xMidYMid meet">  <g transform="translate(0.000000,300.000000) scale(0.100000,-0.100000)" fill="#000000" stroke="none"> <path d="M1680 2574 c-140 -52 -312 -115 -382 -141 -70 -26 -125 -50 -123 -54 3 -3 18 -9 35 -12 29 -6 30 -8 30 -62 0 -35 -6 -65 -16 -81 -14 -20 -15 -30 -6 -49 7 -14 8 -25 3 -25 -15 0 -29 -53 -41 -155 -6 -55 -13 -117 -17 -139 -4 -30 -2 -37 8 -34 16 5 36 74 40 138 2 25 5 -2 8 -60 4 -60 10 -105 16 -105 6 0 12 48 15 115 6 135 19 128 22 -13 2 -56 7 -97 13 -97 6 0 9 43 8 110 -1 61 0 110 2 110 1 0 8 -38 15 -84 11 -81 30 -129 45 -114 4 4 2 28 -3 55 -6 26 -14 89 -17 138 -5 65 -12 98 -26 118 -15 20 -17 32 -10 45 7 13 6 27 -5 46 -8 16 -14 51 -14 78 0 42 2 49 18 44 30 -9 220 -56 226 -56 4 0 4 17 0 38 -5 33 -3 39 23 54 85 50 254 99 380 112 58 5 56 8 69 -91 6 -49 9 -53 33 -53 63 0 99 -12 103 -34 4 -21 2 -21 -109 -17 -123 3 -223 -13 -325 -54 -54 -22 -56 -22 -61 -4 -3 10 0 23 7 28 22 19 167 62 246 73 65 9 80 14 76 27 -2 9 -7 33 -11 54 -7 43 -9 44 -117 23 -77 -15 -234 -68 -263 -90 -17 -12 -17 -17 0 -94 17 -76 17 -83 1 -100 -22 -26 -21 -52 4 -52 25 0 25 -7 0 -72 -24 -63 -24 -68 -5 -68 21 0 19 -15 -12 -72 -27 -49 -27 -50 -8 -64 19 -14 18 -15 -4 -67 -12 -28 -25 -58 -28 -65 -3 -8 3 -15 16 -19 26 -7 26 -10 1 -75 -24 -63 -25 -78 -5 -78 20 0 19 -6 -12 -69 -20 -39 -24 -56 -15 -59 20 -6 14 -27 -19 -58 l-30 -29 -246 -3 c-273 -3 -336 -12 -431 -62 -31 -16 -66 -30 -77 -30 -37 -1 -101 -37 -132 -75 -46 -56 -58 -110 -46 -213 9 -81 7 -108 -12 -154 -5 -13 -2 -18 11 -18 22 0 84 36 100 58 8 11 12 -17 17 -116 7 -136 36 -311 59 -359 12 -25 19 -28 70 -31 65 -3 60 -12 78 118 8 58 22 100 66 188 49 96 57 123 62 184 5 69 5 70 20 43 9 -19 13 -48 10 -90 -3 -51 -11 -74 -47 -134 l-44 -72 6 -77 c3 -42 11 -95 19 -117 12 -38 16 -40 57 -43 24 -2 48 1 52 5 5 5 13 52 19 104 9 97 15 124 45 197 18 43 18 44 54 35 20 -4 95 -8 167 -8 l132 0 17 -100 c10 -55 27 -129 39 -165 l21 -65 63 -3 c81 -4 92 5 92 73 0 64 23 187 49 270 11 33 25 80 31 104 9 33 14 41 21 30 14 -22 10 -69 -11 -139 -24 -79 -25 -127 -4 -228 23 -110 24 -112 93 -112 35 0 63 5 68 13 6 6 13 47 17 91 10 125 71 381 83 349 3 -7 13 -13 22 -13 19 0 44 53 57 117 4 22 13 33 28 35 20 3 21 8 18 75 -4 69 -3 73 17 73 24 0 26 22 12 118 -7 47 -6 52 10 47 30 -10 30 11 -1 103 -34 102 -36 122 -15 122 19 0 19 19 -1 58 -8 18 -19 45 -24 61 -7 24 -5 30 12 34 18 5 18 8 -11 66 -37 71 -40 115 -11 131 11 6 55 15 96 20 44 4 83 14 91 23 8 8 26 41 39 73 56 137 43 176 -73 224 -82 34 -122 60 -91 60 31 0 31 21 0 53 -26 27 -32 42 -38 105 -6 65 -9 73 -30 78 -26 7 -50 31 -41 41 4 3 27 0 52 -7 43 -12 45 -14 45 -51 0 -22 2 -39 4 -39 3 0 71 23 152 52 105 37 142 53 128 58 -261 95 -534 190 -545 190 -8 -1 -129 -44 -269 -96z m300 -354 c120 -24 138 -30 179 -64 22 -19 72 -46 111 -62 38 -15 77 -35 86 -45 15 -17 14 -18 -20 -12 -44 7 -49 -12 -11 -47 14 -13 25 -29 25 -37 0 -18 -45 -17 -60 2 -14 17 -36 20 -45 5 -10 -16 12 -47 45 -60 56 -23 36 -35 -70 -43 -30 -2 -76 -13 -102 -25 -114 -53 -226 -2 -273 123 -22 56 -15 141 14 189 16 25 19 42 14 66 -6 31 -4 33 18 28 13 -3 53 -11 89 -18z m-220 -83 c0 -29 -56 -84 -98 -97 -32 -9 -31 -7 25 55 32 36 61 64 66 65 4 0 7 -10 7 -23z m-17 -171 c16 -41 -36 -121 -98 -153 l-30 -16 33 37 c35 40 56 77 66 119 7 29 21 35 29 13z m-83 -34 c0 -11 -9 -27 -19 -36 -19 -18 -19 -17 -9 18 12 38 28 48 28 18z m150 -92 c0 -9 16 -49 35 -89 20 -41 33 -76 31 -79 -11 -10 -63 58 -74 96 -15 49 -16 124 -2 102 5 -8 10 -22 10 -30z m-81 -129 c2 -100 -50 -212 -118 -254 l-34 -21 37 54 c39 58 70 145 81 226 4 27 9 56 12 64 8 24 21 -17 22 -69z m278 -151 c21 -71 26 -110 29 -235 5 -181 -5 -170 -41 49 -14 83 -34 192 -45 241 -11 50 -20 104 -19 120 0 26 4 21 25 -30 14 -33 37 -98 51 -145z m-383 68 c-23 -44 -30 -20 -8 29 12 26 18 33 21 21 2 -9 -4 -32 -13 -50z m177 -2 c12 -69 -1 -145 -34 -193 -31 -46 -49 -51 -32 -10 14 35 31 121 40 210 4 32 9 57 11 54 2 -2 9 -30 15 -61z m309 -48 c15 -46 26 -85 24 -87 -7 -8 -36 24 -53 58 -22 44 -33 95 -24 117 10 25 24 1 53 -88z m-215 -70 c16 -107 -36 -277 -105 -343 l-31 -30 26 57 c42 91 65 186 71 283 7 107 12 130 24 99 5 -12 11 -42 15 -66z m-245 -173 c0 -24 -25 -67 -57 -97 -25 -24 -90 -58 -111 -58 -10 0 150 169 161 170 4 0 7 -7 7 -15z m100 -55 c-32 -63 -85 -115 -141 -140 -60 -25 -73 -21 -29 10 18 13 59 57 92 99 33 42 67 82 76 89 26 20 27 -9 2 -58z m379 20 c5 -17 13 -65 16 -108 l7 -77 -23 33 c-16 25 -23 54 -27 108 -5 78 7 99 27 44z m-179 -67 c0 -78 19 -217 35 -264 l16 -43 -31 29 c-17 17 -37 51 -45 79 -26 86 -16 246 15 246 5 0 10 -21 10 -47z m-740 7 c21 -7 18 -8 -20 -9 -73 -2 -218 -36 -319 -75 -51 -20 -96 -36 -99 -36 -3 0 6 13 21 28 34 35 106 72 172 88 56 14 207 16 245 4z m103 -70 c-54 -27 -130 -74 -170 -104 -99 -76 -139 -96 -193 -96 l-45 1 55 27 c31 15 91 55 134 90 43 34 92 70 109 79 48 25 138 52 175 52 29 1 20 -6 -65 -49z m-307 -55 c-116 -86 -194 -110 -261 -81 l-30 13 55 6 c39 4 90 24 174 67 65 33 125 60 134 60 9 0 -23 -29 -72 -65z m349 8 c-67 -105 -120 -155 -197 -188 -42 -17 -108 -20 -108 -5 0 6 7 10 16 10 36 0 127 57 209 131 48 43 90 79 92 79 3 0 -3 -12 -12 -27z m230 -74 c-46 -47 -84 -69 -120 -69 -18 0 -25 5 -25 19 0 14 9 21 38 26 21 3 61 19 88 35 27 16 51 29 54 29 2 1 -14 -17 -35 -40z m278 -132 c15 -24 41 -57 59 -73 l33 -27 -30 7 c-86 20 -156 132 -139 223 l7 36 22 -60 c12 -33 33 -81 48 -106z m237 90 c0 -47 -19 -125 -33 -134 -12 -7 -4 167 8 187 12 19 25 -8 25 -53z m-725 -8 c-10 -45 -93 -126 -138 -134 -19 -4 -43 -3 -52 2 -13 8 -8 12 26 22 30 9 61 31 101 72 32 33 58 65 58 71 0 6 3 9 6 5 3 -3 3 -20 -1 -38z m296 2 c-52 -73 -138 -121 -216 -121 -69 0 -89 15 -31 23 51 7 115 38 191 91 63 44 84 47 56 7z m-861 -71 c-14 -27 -55 -52 -76 -48 -33 6 -24 24 23 45 61 27 66 27 53 3z m924 -62 c14 -68 -19 -154 -79 -206 -49 -44 -63 -40 -26 7 42 52 68 114 77 179 8 59 18 67 28 20z m-864 7 c0 -44 -63 -95 -116 -95 -26 0 -25 2 18 29 26 17 54 41 64 55 18 29 34 34 34 11z m765 -105 c-14 -28 -67 -70 -89 -70 -4 0 6 16 23 35 17 20 41 55 53 78 22 40 23 41 26 15 2 -15 -4 -41 -13 -58z m-79 31 c-9 -14 -56 -14 -56 -1 0 14 43 30 54 20 4 -5 5 -13 2 -19z m-651 -77 c-19 -29 -76 -57 -100 -48 -11 5 -5 13 27 34 24 15 52 37 63 50 17 19 20 20 23 6 2 -10 -4 -28 -13 -42z"/> <path d="M1965 2147 c-19 -15 -13 -37 11 -37 8 0 14 -10 14 -23 0 -50 70 -76 103 -39 41 45 -2 112 -71 112 -21 0 -46 -6 -57 -13z m75 -37 c0 -5 -4 -10 -10 -10 -5 0 -10 5 -10 10 0 6 5 10 10 10 6 0 10 -4 10 -10z"/> </g> </svg> 